Coordinates
version=1
nRows=5
nColumns=63
inDegrees=yes

Units are S.I. units (second, meters, Newtons, ...)
If the header above contains a line with 'inDegrees', this indicates whether rotational values are in degrees (yes) or radians (no).

endheader
time	pelvis_tilt	pelvis_list	pelvis_rotation	pelvis_tx	pelvis_ty	pelvis_tz	hip_flexion_r	hip_adduction_r	hip_rotation_r	knee_angle_r	knee_angle_r_beta	ankle_angle_r	subtalar_angle_r	mtp_angle_r	hip_flexion_l	hip_adduction_l	hip_rotation_l	knee_angle_l	knee_angle_l_beta	ankle_angle_l	subtalar_angle_l	mtp_angle_l	L5_S1_Flex_Ext	L5_S1_Lat_Bending	L5_S1_axial_rotation	L4_L5_Flex_Ext	L4_L5_Lat_Bending	L4_L5_axial_rotation	L3_L4_Flex_Ext	L3_L4_Lat_Bending	L3_L4_axial_rotation	L2_L3_Flex_Ext	L2_L3_Lat_Bending	L2_L3_axial_rotation	L1_L2_Flex_Ext	L1_L2_Lat_Bending	L1_L2_axial_rotation	L1_T12_Flex_Ext	L1_T12_Lat_Bending	L1_T12_axial_rotation	Abs_r3	Abs_r2	Abs_r1	Abs_t1	Abs_t2	neck_flexion	neck_bending	neck_rotation	arm_flex_r	arm_add_r	arm_rot_r	elbow_flex_r	pro_sup_r	wrist_flex_r	wrist_dev_r	arm_flex_l	arm_add_l	arm_rot_l	elbow_flex_l	pro_sup_l	wrist_flex_l	wrist_dev_l
      1.72881356	     -6.21612207	      0.99762186	     83.01383175	      0.28892482	      0.78069304	      0.66990912	     -3.90361806	     -1.60645621	     17.05623543	      0.74456372	      0.01299509	     18.61073111	    -15.20184135	      0.00000000	     -4.85922356	      1.61347437	      4.72467511	      0.77888143	      0.01359405	     17.95271319	    -13.42484482	      0.00000000	      0.28529191	     -0.26070822	     -2.60968696	      0.52981560	     -0.34674193	     -2.77279240	      0.46870607	     -0.63388596	     -2.77279240	      0.32606012	     -0.63388596	     -2.28347609	      0.26492206	     -0.53163620	     -2.12037066	      0.16301580	     -0.40383703	     -1.95726522	      2.03781156	     -2.94918352	    -14.51429598	      0.00000000	      0.00000000	     27.80320951	      4.35718309	    -12.37160339	    126.72534098	    -43.44344738	     63.52060109	     62.73859737	     68.54146256	     11.72519982	      1.07808031	    119.52965578	      8.45231048	     53.73853752	     32.46183957	     83.19695954	     -3.25992917	    -11.45922254
      1.74576271	     -6.16354460	      1.08133761	     82.69856038	      0.28903656	      0.78030677	      0.67042307	     -4.01820013	     -1.60133780	     17.08596878	      0.73631936	      0.01285120	     18.04674665	    -15.41354093	      0.00000000	     -4.98297461	      1.59181036	      4.84883711	      0.80009664	      0.01396432	     17.97513374	    -13.70904001	      0.00000000	      0.26875949	     -0.20288237	     -2.75466448	      0.49911325	     -0.26983355	     -2.92683101	      0.44154497	     -0.49328819	     -2.92683101	      0.30716522	     -0.49328819	     -2.41033142	      0.24957006	     -0.41371772	     -2.23816489	      0.15356917	     -0.31426479	     -2.06599836	      1.91972216	     -2.29504592	    -15.32061746	      0.00000000	      0.00000000	     27.73089107	      3.47155535	     -9.66949485	    128.07564048	    -40.91195182	     63.67468634	     60.61506982	     72.26989581	     11.85004816	      1.59459975	    123.26583385	      9.15129259	     59.09204750	     29.88586165	     84.83570463	     -5.93797488	    -12.00443343
      1.76271186	     -6.37428256	      1.07500664	     82.44552325	      0.28967687	      0.77979394	      0.67089101	     -3.99473279	     -1.82222282	     17.19537745	      0.73959081	      0.01290829	     17.61608135	    -15.58458103	      0.00000000	     -4.96568154	      1.79658597	      4.98182508	      0.82847646	      0.01445964	     17.91545195	    -14.00477725	      0.00000000	      0.27146076	     -0.19900651	     -2.89597296	      0.50412978	     -0.26467866	     -3.07697127	      0.44598288	     -0.48386442	     -3.07697127	      0.31025250	     -0.48386442	     -2.53397634	      0.25207846	     -0.40581407	     -2.35297803	      0.15511268	     -0.30826108	     -2.17197972	      1.93901707	     -2.25120142	    -16.10653283	      0.00000000	      0.00000000	     27.70065052	      2.57547867	     -9.03845174	    128.60438722	    -38.98319052	     62.49923686	     58.96343072	     77.80691194	     12.50288482	      1.99309242	    128.65201092	     10.79298982	     71.04677941	     25.94947493	     86.13732762	    -10.57404672	    -13.54148302
      1.77966102	     -6.50430549	      1.11651111	     82.03399129	      0.29022506	      0.77930033	      0.67166907	     -3.96586277	     -1.98819353	     17.59813398	      0.73314451	      0.01279579	     17.31551796	    -15.63762044	      0.00000000	     -4.99279127	      1.95415031	      4.90557571	      0.84675627	      0.01477868	     18.00837845	    -14.24505954	      0.00000000	      0.25249589	     -0.23704573	     -2.72362080	      0.46891012	     -0.31527083	     -2.89384710	      0.41482550	     -0.57635300	     -2.89384710	      0.28857755	     -0.57635300	     -2.38316820	      0.23446768	     -0.48338366	     -2.21294190	      0.14427615	     -0.36718384	     -2.04271560	      1.80355289	     -2.68150874	    -15.14796180	      0.00000000	      0.00000000	     27.69021659	      2.11853532	    -12.69409526	    129.89696354	    -40.00355226	     62.81200527	     58.83549567	     81.79118674	     13.34681370	      2.42601601	    136.26869601	     25.38723200	    197.19048621	      0.41147344	     65.55261929	    -28.08561879	     -0.52847572
      1.79661017	     -6.50783900	      0.87168172	     81.53683472	      0.29050635	      0.77895103	      0.67164052	     -3.65661485	     -2.01170480	     18.04171281	      0.71453401	      0.01247097	     17.08830064	    -15.39930522	      0.00000000	     -4.78942479	      1.97486939	      4.70231975	      0.83394454	      0.01455508	     18.09520964	    -14.49995508	      0.00000000	      0.29217787	     -0.17274172	     -2.73754972	      0.54260353	     -0.22974649	     -2.90864657	      0.48001903	     -0.42000422	     -2.90864657	      0.33393009	     -0.42000422	     -2.39535600	      0.27131637	     -0.35225491	     -2.22425914	      0.16695044	     -0.26757692	     -2.05316229	      2.08699733	     -1.95408887	    -15.22543026	      0.00000000	      0.00000000	     27.79712229	      0.64488100	    -11.17305571	    131.13821010	    -38.64512959	     63.50083980	     57.69757131	     83.33605581	     13.66045138	      3.02710867	    138.61054053	     26.55206132	    198.40963919	      0.41900381	     66.46021891	    -26.74674162	     -2.97748666
